<svg xmlns="http://www.w3.org/2000/svg" viewBox="0 0 360 220">
  <rect width="360" height="220" rx="24" fill="#F1F6F9"/>
  <line x1="52" y1="166" x2="320" y2="166" stroke="#8798A5" stroke-width="2"/>
  <line x1="52" y1="45" x2="52" y2="166" stroke="#8798A5" stroke-width="2"/>
  <g transform="translate(76 60)">
    <rect x="0" y="66" width="22" height="40" fill="#808080"/><rect x="0" y="20" width="22" height="46" fill="#00843D"/>
    <rect x="34" y="52" width="22" height="54" fill="#808080"/><rect x="34" y="6" width="22" height="46" fill="#00843D"/>
    <rect x="68" y="74" width="22" height="32" fill="#808080"/><rect x="68" y="30" width="22" height="44" fill="#00843D"/>
    <rect x="102" y="40" width="22" height="66" fill="#808080"/><rect x="102" y="0" width="22" height="40" fill="#00843D"/>
    <rect x="136" y="60" width="22" height="46" fill="#808080"/><rect x="136" y="18" width="22" height="42" fill="#00843D"/>
    <rect x="170" y="72" width="22" height="34" fill="#808080"/><rect x="170" y="38" width="22" height="34" fill="#00843D"/>
  </g>
  <text x="28" y="202" font-family="Arial" font-size="18" font-weight="700" fill="#03547C">Distribution by Bench</text>
</svg>
