<svg xmlns="http://www.w3.org/2000/svg" viewBox="0 0 820 460" role="img" aria-label="Resource estimation hero illustration">
  <defs>
    <linearGradient id="bg" x1="0" x2="1" y1="0" y2="1">
      <stop offset="0" stop-color="#eaf5fb"/>
      <stop offset="1" stop-color="#ffffff"/>
    </linearGradient>
    <linearGradient id="block" x1="0" x2="1">
      <stop offset="0" stop-color="#03547C"/>
      <stop offset="1" stop-color="#00843D"/>
    </linearGradient>
  </defs>
  <rect width="820" height="460" rx="32" fill="url(#bg)"/>
  <g opacity="0.98">
    <path d="M92 350 L300 250 L536 310 L720 220 L720 360 L92 360 Z" fill="#d7e8ef"/>
    <path d="M92 350 L300 250 L536 310 L720 220" fill="none" stroke="#03547C" stroke-width="5"/>
    <circle cx="300" cy="250" r="7" fill="#A39161"/>
    <circle cx="536" cy="310" r="7" fill="#A39161"/>
  </g>
  <g transform="translate(145 100) skewY(-16)">
    <rect x="0" y="0" width="64" height="52" fill="#03547C" opacity="0.95"/>
    <rect x="68" y="0" width="64" height="52" fill="#00843D" opacity="0.9"/>
    <rect x="136" y="0" width="64" height="52" fill="#808080" opacity="0.9"/>
    <rect x="204" y="0" width="64" height="52" fill="#FF0000" opacity="0.88"/>
    <rect x="34" y="56" width="64" height="52" fill="#00843D" opacity="0.9"/>
    <rect x="102" y="56" width="64" height="52" fill="#03547C" opacity="0.95"/>
    <rect x="170" y="56" width="64" height="52" fill="#0000FF" opacity="0.78"/>
    <rect x="238" y="56" width="64" height="52" fill="#A39161" opacity="0.9"/>
    <rect x="68" y="112" width="64" height="52" fill="#FF0000" opacity="0.85"/>
    <rect x="136" y="112" width="64" height="52" fill="#00843D" opacity="0.86"/>
    <rect x="204" y="112" width="64" height="52" fill="#03547C" opacity="0.88"/>
  </g>
  <g transform="translate(515 82)">
    <rect x="0" y="0" width="190" height="156" rx="16" fill="#fff" stroke="#D9E2EC" stroke-width="3"/>
    <text x="22" y="36" font-family="Arial" font-size="19" font-weight="700" fill="#03547C">Resource Table</text>
    <line x1="22" y1="55" x2="168" y2="55" stroke="#005A87" stroke-width="8"/>
    <line x1="22" y1="82" x2="168" y2="82" stroke="#D9E2EC" stroke-width="4"/>
    <line x1="22" y1="108" x2="168" y2="108" stroke="#D9E2EC" stroke-width="4"/>
    <line x1="22" y1="134" x2="168" y2="134" stroke="#D9E2EC" stroke-width="4"/>
  </g>
  <text x="70" y="420" font-family="Arial" font-size="24" font-weight="800" fill="#03547C">Evaluation · Distribution · Comparison</text>
</svg>
